<svg width="22.000000" height="22.000000" viewBox="0 0 22 22" fill="none" xmlns="http://www.w3.org/2000/svg" xmlns:xlink="http://www.w3.org/1999/xlink">
	<desc>
			Created with Pixso.
	</desc>
	<defs>
		<clipPath id="clip1_155">
			<rect id="Frame" width="22.000000" height="22.000000" fill="white" fill-opacity="0"/>
		</clipPath>
	</defs>
	<rect id="Frame" width="22.000000" height="22.000000" fill="#FFFFFF" fill-opacity="0"/>
	<g clip-path="url(#clip1_155)">
		<path id="Vector" d="M11.44 22L11.44 14.22L15.1 14.22L15.1 11L11.44 11L11.44 8.72C11.44 7.99 11.88 7.33 12.39 7.33L15.18 7.33L15.18 4.1L12.39 4.1C10.12 4.1 8.28 6.16 8.28 8.72L8.28 11L5.5 11L5.5 14.22L8.28 14.22L8.28 21.63C3.52 20.45 0 16.13 0 11C0 4.91 4.91 0 11 0C17.08 0 22 4.91 22 11C22 16.93 17.3 21.77 11.44 22Z" fill="#000000" fill-opacity="1.000000" fill-rule="nonzero"/>
	</g>
</svg>
