<svg width="22.000000" height="22.000000" viewBox="0 0 22 22" fill="none" xmlns="http://www.w3.org/2000/svg" xmlns:xlink="http://www.w3.org/1999/xlink">
	<desc>
			Created with Pixso.
	</desc>
	<defs>
		<clipPath id="clip1_170">
			<rect id="Frame" width="22.000000" height="22.000000" fill="white" fill-opacity="0"/>
		</clipPath>
	</defs>
	<rect id="Frame" width="22.000000" height="22.000000" fill="#FFFFFF" fill-opacity="0"/>
	<g clip-path="url(#clip1_170)">
		<path id="Vector" d="M11 0C17.11 0 22 4.88 22 11C22 17.11 17.11 22 11 22C4.88 22 0 17.11 0 11C0 4.88 4.88 0 11 0ZM8.18 4.27L13.93 4.27C16.13 4.27 17.84 5.98 17.84 8.06L17.84 13.81C17.84 15.88 16.13 17.6 13.93 17.6L8.18 17.6C5.98 17.6 4.27 15.88 4.27 13.81L4.27 8.18C4.27 5.98 5.98 4.27 8.18 4.27ZM11 7.57C12.95 7.57 14.54 9.16 14.54 11.12C14.54 13.07 12.95 14.66 11 14.66C9.04 14.66 7.33 13.07 7.33 11.12C7.33 9.16 8.92 7.57 11 7.57ZM11 9.04C12.1 9.04 13.07 10.02 13.07 11.12C13.07 12.22 12.1 13.2 11 13.2C9.89 13.2 8.92 12.22 8.92 11.12C8.92 10.02 9.77 9.04 11 9.04ZM14.42 6.96C14.78 6.96 15.15 7.21 15.15 7.7C15.15 8.06 14.91 8.43 14.42 8.43C14.05 8.43 13.68 8.18 13.68 7.7C13.68 7.21 14.05 6.96 14.42 6.96ZM8.8 5.74L13.32 5.74C15.03 5.74 16.37 7.08 16.37 8.79L16.37 13.32C16.37 15.03 15.03 16.37 13.32 16.37L8.8 16.37C7.08 16.37 5.74 15.03 5.74 13.32L5.74 8.79C5.62 7.08 7.08 5.74 8.8 5.74Z" fill="#000000" fill-opacity="1.000000" fill-rule="evenodd"/>
	</g>
</svg>
