<svg width="22.000000" height="22.000000" viewBox="0 0 22 22" fill="none" xmlns="http://www.w3.org/2000/svg" xmlns:xlink="http://www.w3.org/1999/xlink">
	<desc>
			Created with Pixso.
	</desc>
	<defs>
		<clipPath id="clip1_175">
			<rect id="Frame" width="22.000000" height="22.000000" fill="white" fill-opacity="0"/>
		</clipPath>
	</defs>
	<rect id="Frame" width="22.000000" height="22.000000" fill="#FFFFFF" fill-opacity="0"/>
	<g clip-path="url(#clip1_175)">
		<path id="Vector" d="M22 11C22 17.08 17.08 22 11 22C4.91 22 0 17.08 0 11C0 4.91 4.91 0 11 0C17.08 0 22 4.91 22 11ZM8.28 5.72C8.28 4.83 7.55 4.1 6.45 4.1C5.35 4.1 4.62 4.76 4.62 5.72C4.62 6.6 5.35 7.33 6.45 7.33C7.55 7.33 8.28 6.6 8.28 5.72ZM7.77 8.72L5.06 8.72L5.06 16.5L7.84 16.5L7.84 8.72L7.77 8.72ZM17.89 12.39C17.89 9.89 16.64 8.28 14.66 8.28C13.56 8.28 12.76 8.94 12.39 9.97L12.32 8.79L9.53 8.79C9.53 9.09 9.6 10.63 9.6 10.63L9.6 16.57L12.39 16.57L12.39 12.46C12.39 11.36 12.9 10.63 13.71 10.63C14.52 10.63 15.1 11.07 15.1 12.46L15.1 16.57L17.89 16.57L17.89 12.39Z" fill="#000000" fill-opacity="1.000000" fill-rule="nonzero"/>
	</g>
</svg>
