<svg width="22.000000" height="22.000000" viewBox="0 0 22 22" fill="none" xmlns="http://www.w3.org/2000/svg" xmlns:xlink="http://www.w3.org/1999/xlink">
	<desc>
			Created with Pixso.
	</desc>
	<defs>
		<clipPath id="clip1_180">
			<rect id="Frame" width="22.000000" height="22.000000" fill="white" fill-opacity="0"/>
		</clipPath>
	</defs>
	<rect id="Frame" width="22.000000" height="22.000000" fill="#FFFFFF" fill-opacity="0"/>
	<g clip-path="url(#clip1_180)">
		<path id="Vector" d="M11 22C9.89 22 8.87 21.85 7.84 21.56C8.28 20.89 8.72 20.09 8.94 19.21C9.09 18.7 9.67 16.2 9.67 16.2C10.04 16.93 11.14 17.6 12.39 17.6C15.91 17.6 18.33 14.37 18.33 10.04C18.33 6.81 15.54 3.74 11.36 3.74C6.16 3.66 3.59 7.4 3.59 10.56C3.59 12.46 4.32 14.15 5.86 14.74C6.08 14.81 6.38 14.74 6.45 14.44C6.52 14.29 6.6 13.78 6.67 13.56C6.74 13.27 6.67 13.2 6.52 12.98C6.08 12.46 5.79 11.8 5.79 10.77C5.79 7.99 7.84 5.5 11.22 5.5C14.15 5.5 15.76 7.33 15.76 9.75C15.76 12.9 14.37 15.62 12.24 15.62C11.07 15.62 10.26 14.66 10.48 13.49C10.85 12.1 11.44 10.56 11.44 9.6C11.44 8.72 10.92 7.91 9.97 7.91C8.79 7.91 7.84 9.16 7.84 10.77C7.84 11.8 8.21 12.54 8.21 12.54C8.21 12.54 6.96 17.6 6.82 18.55C6.6 19.35 6.52 20.31 6.6 21.12C2.71 19.35 0 15.47 0 11C0 4.91 4.91 0 11 0C17.08 0 22 4.91 22 11C22 17.08 17.08 22 11 22Z" fill="#000000" fill-opacity="1.000000" fill-rule="nonzero"/>
	</g>
</svg>
