<svg width="22.000000" height="22.000000" viewBox="0 0 22 22" fill="none" xmlns="http://www.w3.org/2000/svg" xmlns:xlink="http://www.w3.org/1999/xlink">
	<desc>
			Created with Pixso.
	</desc>
	<defs>
		<clipPath id="clip1_160">
			<rect id="Frame" width="22.000000" height="22.000000" fill="white" fill-opacity="0"/>
		</clipPath>
	</defs>
	<rect id="Frame" width="22.000000" height="22.000000" fill="#FFFFFF" fill-opacity="0"/>
	<g clip-path="url(#clip1_160)">
		<path id="Vector" d="M22 11C22 17.08 17.08 22 11 22C4.91 22 0 17.08 0 11C0 4.91 4.91 0 11 0C17.08 0 22 4.91 22 11ZM19.28 6.96C18.7 7.18 18.11 7.4 17.45 7.47C18.11 7.11 18.55 6.45 18.77 5.72C18.18 6.08 17.52 6.3 16.79 6.45C16.2 5.86 15.4 5.42 14.52 5.42C12.76 5.42 11.44 6.81 11.44 8.58C11.44 8.79 11.44 9.09 11.51 9.31C8.94 9.16 6.6 7.91 5.06 6.01C4.84 6.52 4.62 7.04 4.62 7.62C4.62 8.72 5.13 9.68 6.01 10.19C5.5 10.19 4.98 10.04 4.62 9.82C4.62 11.36 5.72 12.61 7.11 12.9C6.89 12.98 6.6 12.98 6.3 12.98C6.08 12.98 5.86 12.98 5.72 12.9C6.08 14.15 7.25 14.96 8.65 15.03C7.55 15.83 6.23 16.42 4.76 16.42C4.54 16.42 4.25 16.42 4.03 16.35C5.42 17.23 7.03 17.74 8.8 17.74C14.52 17.74 17.67 12.98 17.67 8.87L17.67 8.43C18.33 8.14 18.84 7.55 19.28 6.96Z" fill="#000000" fill-opacity="1.000000" fill-rule="nonzero"/>
	</g>
</svg>
