<svg width="22.000000" height="22.000000" viewBox="0 0 22 22" fill="none" xmlns="http://www.w3.org/2000/svg" xmlns:xlink="http://www.w3.org/1999/xlink">
	<desc>
			Created with Pixso.
	</desc>
	<defs>
		<clipPath id="clip1_165">
			<rect id="Frame" width="22.000000" height="22.000000" fill="white" fill-opacity="0"/>
		</clipPath>
	</defs>
	<rect id="Frame" width="22.000000" height="22.000000" fill="#FFFFFF" fill-opacity="0"/>
	<g clip-path="url(#clip1_165)">
		<path id="Vector" d="M22 11C22 17.08 17.08 22 11 22C4.91 22 0 17.08 0 11C0 4.91 4.91 0 11 0C17.08 0 22 4.91 22 11ZM17.89 11C17.89 5.93 17.89 5.93 11 5.93C4.1 5.93 4.1 5.93 4.1 11C4.1 16.06 4.1 16.06 11 16.06C17.89 16.06 17.89 16.06 17.89 11ZM9.16 8.28L13.78 11.07L9.16 13.85L9.16 8.28Z" fill="#000000" fill-opacity="1.000000" fill-rule="nonzero"/>
	</g>
</svg>
