<svg width="15.000000" height="11.000000" viewBox="0 0 15 11" fill="none" xmlns="http://www.w3.org/2000/svg" xmlns:xlink="http://www.w3.org/1999/xlink">
	<desc>
			Created with Pixso.
	</desc>
	<defs>
		<clipPath id="clip1_65">
			<rect id="Frame" width="15.000000" height="11.000000" fill="white" fill-opacity="0"/>
		</clipPath>
	</defs>
	<rect id="Frame" width="15.000000" height="11.000000" fill="#FFFFFF" fill-opacity="0"/>
	<g clip-path="url(#clip1_65)">
		<path id="Vector" d="M13.28 5.11L9.53 2.36C9.38 2.26 9.19 2.2 9 2.2C8.8 2.2 8.61 2.26 8.47 2.36C8.33 2.46 8.26 2.6 8.25 2.75C8.25 2.89 8.33 3.03 8.46 3.13L10.93 4.95L2.25 4.95C2.05 4.95 1.86 5 1.71 5.11C1.57 5.21 1.5 5.35 1.5 5.5C1.5 5.64 1.57 5.78 1.71 5.88C1.86 5.99 2.05 6.05 2.25 6.05L10.93 6.05L8.46 7.86C8.33 7.96 8.25 8.1 8.25 8.24C8.26 8.39 8.33 8.53 8.47 8.63C8.61 8.73 8.8 8.79 9 8.79C9.19 8.79 9.38 8.73 9.53 8.63L13.28 5.88C13.42 5.78 13.49 5.64 13.49 5.5C13.49 5.35 13.42 5.21 13.28 5.11Z" fill="#000000" fill-opacity="1.000000" fill-rule="nonzero"/>
	</g>
</svg>
