<svg width="16.000000" height="16.000000" viewBox="0 0 16 16" fill="none" xmlns="http://www.w3.org/2000/svg" xmlns:xlink="http://www.w3.org/1999/xlink">
	<desc>
			Created with Pixso.
	</desc>
	<defs>
		<clipPath id="clip1_183">
			<rect id="Frame" width="16.000000" height="16.000000" fill="white" fill-opacity="0"/>
		</clipPath>
	</defs>
	<rect id="Frame" width="16.000000" height="16.000000" fill="#FFFFFF" fill-opacity="0"/>
	<g clip-path="url(#clip1_183)">
		<path id="Vector" d="M8 0.71C6.55 0.71 5.14 1.13 3.95 1.93C2.75 2.74 1.81 3.87 1.26 5.21C0.71 6.54 0.56 8 0.85 9.42C1.13 10.83 1.82 12.13 2.84 13.15C3.86 14.17 5.16 14.86 6.57 15.14C7.99 15.42 9.45 15.28 10.78 14.73C12.12 14.18 13.25 13.24 14.06 12.04C14.86 10.85 15.28 9.44 15.28 8C15.28 6.06 14.51 4.21 13.15 2.84C11.78 1.48 9.93 0.71 8 0.71ZM6.49 10.94C6.93 10.99 7.37 11.02 7.82 11.02C8.38 11.02 8.95 10.98 9.51 10.9C9.18 12.04 8.67 13.12 8 14.1C7.33 13.14 6.82 12.07 6.49 10.94ZM7.82 9.95C7.29 9.95 6.75 9.91 6.23 9.83C6.1 9.17 6.04 8.49 6.04 7.82C6.04 7.26 6.08 6.71 6.17 6.17C6.71 6.08 7.26 6.04 7.82 6.04C8.49 6.04 9.17 6.1 9.83 6.23C9.91 6.75 9.95 7.29 9.95 7.82C9.95 8.47 9.89 9.13 9.77 9.77C9.13 9.89 8.47 9.95 7.82 9.95ZM5.1 9.59C3.92 9.29 2.81 8.74 1.85 8C2.79 7.25 3.88 6.71 5.05 6.4C4.99 6.87 4.97 7.34 4.97 7.82C4.97 8.41 5.02 9.01 5.1 9.59ZM8 1.85C8.74 2.81 9.29 3.92 9.59 5.1C9.01 5.02 8.41 4.97 7.82 4.97C7.34 4.97 6.87 5 6.39 5.06C6.71 3.89 7.25 2.8 8 1.85ZM10.94 6.49C12.07 6.82 13.14 7.33 14.1 8C13.13 8.67 12.05 9.18 10.9 9.51C10.98 8.95 11.02 8.38 11.02 7.82C11.02 7.37 10.99 6.93 10.94 6.49ZM14.08 6.7C13.05 6.08 11.92 5.62 10.75 5.33C10.5 4.12 10.03 2.97 9.37 1.93C10.53 2.19 11.59 2.78 12.42 3.63C13.25 4.47 13.83 5.54 14.08 6.7ZM6.61 1.93C5.97 2.95 5.5 4.08 5.24 5.26C4.06 5.52 2.94 5.98 1.92 6.63C2.18 5.48 2.76 4.43 3.59 3.6C4.42 2.77 5.48 2.19 6.62 1.93L6.61 1.93ZM1.93 9.37C2.97 10.03 4.12 10.5 5.33 10.75C5.62 11.93 6.08 13.05 6.7 14.08C5.54 13.83 4.47 13.26 3.63 12.42C2.78 11.59 2.19 10.53 1.93 9.37ZM9.29 14.08C9.92 13.02 10.39 11.88 10.68 10.68C11.88 10.39 13.02 9.92 14.08 9.29C13.83 10.46 13.24 11.54 12.39 12.39C11.54 13.24 10.46 13.83 9.29 14.08Z" fill="#000000" fill-opacity="1.000000" fill-rule="nonzero"/>
	</g>
</svg>
