<svg width="121.000000" height="34.000000" viewBox="0 0 121 34" fill="none" xmlns="http://www.w3.org/2000/svg" xmlns:xlink="http://www.w3.org/1999/xlink">
	<desc>
			Created with Pixso.
	</desc>
	<defs>
		<clipPath id="clip1_17">
			<rect id="Frame" width="121.000000" height="34.000000" fill="white" fill-opacity="0"/>
		</clipPath>
	</defs>
	<rect id="Frame" width="121.000000" height="34.000000" fill="#FFFFFF" fill-opacity="0"/>
	<g clip-path="url(#clip1_17)">
		<path id="Vector" d="M26.01 6.43C25.99 6.26 25.83 6.18 25.71 6.16C25.59 6.14 23.2 6.12 23.2 6.12C23.2 6.12 21.19 4.2 20.99 4.01C20.79 3.81 20.41 3.87 20.25 3.91C20.25 3.91 19.88 4.03 19.24 4.22C19.14 3.89 18.98 3.48 18.76 3.07C18.05 1.72 17.01 1.01 15.74 1.01C15.66 1.01 15.56 1.01 15.48 1.03C15.44 0.99 15.4 0.95 15.36 0.9C14.8 0.31 14.11 0.03 13.27 0.05C11.64 0.09 10.03 1.25 8.69 3.32C7.76 4.77 7.06 6.59 6.86 8C4.99 8.57 3.68 8.96 3.66 8.98C2.72 9.27 2.68 9.29 2.56 10.17C2.46 10.82 0 29.63 0 29.63L20.71 33.15L29.69 30.96C29.69 30.96 26.03 6.59 26.01 6.43ZM18.2 4.54C17.73 4.67 17.19 4.85 16.59 5.03C16.57 4.22 16.47 3.09 16.1 2.11C17.35 2.34 17.95 3.71 18.2 4.54ZM15.52 5.36C14.42 5.69 13.25 6.04 12.06 6.42C12.39 5.16 13.03 3.91 13.81 3.09C14.11 2.77 14.5 2.44 14.98 2.25C15.44 3.17 15.52 4.48 15.52 5.36ZM13.29 1.13C13.67 1.13 13.99 1.21 14.26 1.38C13.83 1.6 13.39 1.93 12.99 2.36C11.96 3.46 11.16 5.14 10.84 6.79C9.85 7.08 8.89 7.37 8 7.65C8.59 5.06 10.78 1.21 13.29 1.13Z" fill="#95BF47" fill-opacity="1.000000" fill-rule="nonzero"/>
		<path id="Vector" d="M25.71 6.16C25.59 6.14 23.2 6.12 23.2 6.12C23.2 6.12 21.19 4.2 20.99 4.01C20.91 3.93 20.81 3.89 20.71 3.89L20.71 33.15L29.69 30.96C29.69 30.96 26.03 6.61 26.01 6.43C25.97 6.26 25.83 6.18 25.71 6.16Z" fill="#5E8E3E" fill-opacity="1.000000" fill-rule="nonzero"/>
		<path id="Vector" d="M15.74 10.7L14.7 14.54C14.7 14.54 13.55 14.01 12.15 14.11C10.12 14.23 10.1 15.48 10.12 15.81C10.24 17.53 14.82 17.91 15.08 21.92C15.28 25.09 13.37 27.24 10.62 27.42C7.32 27.61 5.51 25.72 5.51 25.72L6.2 22.8C6.2 22.8 8.04 24.15 9.49 24.07C10.44 24.01 10.78 23.25 10.74 22.7C10.6 20.47 6.86 20.59 6.62 16.93C6.42 13.83 8.49 10.7 13.05 10.41C14.84 10.25 15.74 10.7 15.74 10.7ZM41.85 18.88C40.81 18.34 40.28 17.87 40.28 17.22C40.28 16.4 41.01 15.87 42.19 15.87C43.54 15.87 44.73 16.42 44.73 16.42L45.69 13.56C45.69 13.56 44.81 12.89 42.25 12.89C38.66 12.89 36.18 14.91 36.18 17.75C36.18 19.35 37.33 20.59 38.88 21.47C40.14 22.17 40.57 22.66 40.57 23.41C40.57 24.17 39.96 24.78 38.78 24.78C37.05 24.78 35.42 23.89 35.42 23.89L34.4 26.75C34.4 26.75 35.92 27.75 38.44 27.75C42.13 27.75 44.77 25.97 44.77 22.76C44.79 21.02 43.46 19.78 41.85 18.88ZM56.53 12.86C54.72 12.86 53.29 13.7 52.2 14.99L52.14 14.97L53.71 6.87L49.61 6.87L45.63 27.48L49.73 27.48L51.1 20.43C51.64 17.77 53.03 16.12 54.35 16.12C55.26 16.12 55.62 16.73 55.62 17.61C55.62 18.16 55.56 18.84 55.44 19.39L53.89 27.46L57.99 27.46L59.6 19.12C59.78 18.24 59.9 17.18 59.9 16.5C59.9 14.24 58.66 12.86 56.53 12.86ZM69.17 12.86C64.24 12.86 60.97 17.24 60.97 22.13C60.97 25.27 62.94 27.77 66.62 27.77C71.46 27.77 74.74 23.5 74.74 18.49C74.72 15.62 72.99 12.86 69.17 12.86ZM67.14 24.68C65.75 24.68 65.15 23.5 65.15 22.05C65.15 19.75 66.37 15.97 68.59 15.97C70.05 15.97 70.53 17.2 70.53 18.39C70.53 20.88 69.31 24.68 67.14 24.68ZM85.21 12.86C82.45 12.86 80.87 15.24 80.87 15.24L80.81 15.24L81.05 13.07L77.43 13.07C77.25 14.54 76.93 16.75 76.6 18.41L73.75 33.17L77.85 33.17L78.98 27.2L79.06 27.2C79.06 27.2 79.9 27.73 81.47 27.73C86.29 27.73 89.43 22.88 89.43 17.96C89.45 15.28 88.22 12.86 85.21 12.86ZM81.29 24.74C80.22 24.74 79.6 24.15 79.6 24.15L80.28 20.37C80.75 17.87 82.09 16.18 83.52 16.18C84.77 16.18 85.15 17.32 85.15 18.41C85.15 21.02 83.58 24.74 81.29 24.74ZM95.3 7.08C93.99 7.08 92.95 8.1 92.95 9.43C92.95 10.62 93.73 11.45 94.88 11.45L94.94 11.45C96.22 11.45 97.33 10.6 97.35 9.1C97.35 7.92 96.56 7.08 95.3 7.08ZM89.57 27.48L93.67 27.48L96.46 13.19L92.32 13.19L89.57 27.48ZM106.89 13.15L104.04 13.15L104.18 12.48C104.42 11.11 105.25 9.88 106.61 9.88C107.34 9.88 107.92 10.08 107.92 10.08L108.72 6.92C108.72 6.92 108 6.57 106.49 6.57C105.03 6.57 103.58 6.98 102.47 7.92C101.07 9.1 100.42 10.78 100.08 12.48L99.96 13.15L98.05 13.15L97.45 16.18L99.36 16.18L97.19 27.48L101.29 27.48L103.46 16.18L106.29 16.18L106.89 13.15ZM116.76 13.19C116.76 13.19 114.19 19.55 113.03 23.01L112.98 23.01C112.9 21.9 111.96 13.19 111.96 13.19L107.66 13.19L110.13 26.32C110.19 26.62 110.15 26.79 110.05 26.99C109.57 27.89 108.78 28.77 107.82 29.41C107.04 29.96 106.19 30.32 105.49 30.55L106.63 33.98C107.46 33.8 109.17 33.13 110.65 31.78C112.52 30.06 114.25 27.4 116.02 23.78L121.04 13.19L116.76 13.19Z" fill="#FFFFFF" fill-opacity="1.000000" fill-rule="nonzero"/>
	</g>
</svg>
