<svg width="62.000000" height="62.000000" viewBox="0 0 62 62" fill="none" xmlns="http://www.w3.org/2000/svg" xmlns:xlink="http://www.w3.org/1999/xlink">
	<desc>
			Created with Pixso.
	</desc>
	<defs>
		<clipPath id="clip1_57">
			<rect id="Frame" width="62.000000" height="62.000000" fill="white" fill-opacity="0"/>
		</clipPath>
	</defs>
	<rect id="Frame" width="62.000000" height="62.000000" fill="#FFFFFF" fill-opacity="0"/>
	<g clip-path="url(#clip1_57)">
		<path id="Vector" d="M31 61.03C47.58 61.03 61.03 47.58 61.03 31C61.03 14.41 47.58 0.96 31 0.96C14.41 0.96 0.96 14.41 0.96 31C0.96 47.58 14.41 61.03 31 61.03Z" fill="#FFFFFF" fill-opacity="1.000000" fill-rule="nonzero"/>
		<path id="Vector" d="M31 61.03C14.41 61.03 0.96 47.58 0.96 31C0.96 14.41 14.41 0.96 31 0.96C47.58 0.96 61.03 14.41 61.03 31C61.03 47.58 47.58 61.03 31 61.03Z" stroke="#FFFFFF" stroke-opacity="1.000000" stroke-width="2.000000"/>
		<path id="Vector" d="M36.07 31.07L28.63 36.17L28.63 25.97L36.07 31.07Z" fill="#0A0E17" fill-opacity="1.000000" fill-rule="nonzero"/>
	</g>
</svg>
